# xmcd
#
# Track frame offsets:
#	150
#	2139
#	19149
#	36058
#	52454
#	74333
#	91601
#	109622
#	129169
#	145730
#	170430
#	192977
#	206771
#
# Disc length: 2923 seconds
#
# Revision: 1
# Processed by: cddbd v1.5.1PL0 Copyright (c) Steve Scherf et al.
# Submitted via: audiograbber 1.83.01
#
DISCID=b00b690d
DTITLE=Pebbles - Playful Soul
DYEAR=2005
DGENRE=Soul
TTITLE0=Intro
TTITLE1=Dysfunctional
TTITLE2=She is
TTITLE3=All My Life
TTITLE4=Time
TTITLE5=Confused Again
TTITLE6=The Way of Want feat Tumi
TTITLE7=Emandulo
TTITLE8=Lonely
TTITLE9=Girl in the Mirror
TTITLE10=Rise feat. Kheti
TTITLE11=Smile at Time
TTITLE12=Love is
EXTD=
EXTT0=
EXTT1=
EXTT2=
EXTT3=
EXTT4=
EXTT5=
EXTT6=
EXTT7=
EXTT8=
EXTT9=
EXTT10=
EXTT11=
EXTT12=
PLAYORDER=
